<?xml version="1.0" encoding="UTF-8"?>
<svg id="Layer_2" data-name="Layer 2" xmlns="http://www.w3.org/2000/svg" viewBox="0 0 330 39">
  <defs>
    <style>
      .cls-1 {
        stroke-width: 0px;
      }
    </style>
  </defs>
  <g id="Layer_1-2" data-name="Layer 1">
    <g>
      <g>
        <path class="cls-1" d="M153.1,20.5h-14.62V7.5h14.62v13ZM140.48,18.5h10.62v-9h-10.62v9Z"/>
        <path class="cls-1" d="M165.73,20.5h-14.62V7.5h14.62v13ZM153.1,18.5h10.62v-9h-10.62v9Z"/>
        <path class="cls-1" d="M140.48,20.5h-14.62V7.5h14.62v13ZM127.85,18.5h10.62v-9h-10.62v9Z"/>
        <path class="cls-1" d="M115.23,20.5h-14.62V7.5h14.62v13ZM102.6,18.5h10.62v-9h-10.62v9Z"/>
        <path class="cls-1" d="M127.85,20.5h-14.62V7.5h14.62v13ZM115.23,18.5h10.62v-9h-10.62v9Z"/>
        <path class="cls-1" d="M228.85,20.5h-14.62V7.5h14.62v13ZM216.23,18.5h10.62v-9h-10.62v9Z"/>
        <path class="cls-1" d="M216.23,20.5h-14.62V7.5h14.62v13ZM203.6,18.5h10.62v-9h-10.62v9Z"/>
        <path class="cls-1" d="M102.6,20.5h-14.58V7.5h14.58v13ZM90.02,18.5h10.58v-9h-10.58v9Z"/>
        <path class="cls-1" d="M178.35,20.5h-14.62V7.5h14.62v13ZM165.73,18.5h10.62v-9h-10.62v9Z"/>
        <path class="cls-1" d="M241.98,20.5h-15.12V7.5h15.12v13ZM228.85,18.5h11.12v-9h-11.12v9Z"/>
        <path class="cls-1" d="M203.6,20.5h-14.62V7.5h14.62v13ZM190.98,18.5h10.62v-9h-10.62v9Z"/>
        <path class="cls-1" d="M190.98,20.5h-14.62V7.5h14.62v13ZM178.35,18.5h10.62v-9h-10.62v9Z"/>
        <path class="cls-1" d="M153.1,31.5h-14.62v-13h14.62v13ZM140.48,29.5h10.62v-9h-10.62v9Z"/>
        <path class="cls-1" d="M102.6,31.5h-14.58v-13h14.58v13ZM90.02,29.5h10.58v-9h-10.58v9Z"/>
        <path class="cls-1" d="M190.98,31.5h-14.62v-13h14.62v13ZM178.35,29.5h10.62v-9h-10.62v9Z"/>
        <path class="cls-1" d="M216.23,31.5h-14.62v-13h14.62v13ZM203.6,29.5h10.62v-9h-10.62v9Z"/>
        <path class="cls-1" d="M241.98,31.5h-15.12v-13h15.12v13ZM228.85,29.5h11.12v-9h-11.12v9Z"/>
        <path class="cls-1" d="M228.85,31.5h-14.62v-13h14.62v13ZM216.23,29.5h10.62v-9h-10.62v9Z"/>
        <path class="cls-1" d="M203.6,31.5h-14.62v-13h14.62v13ZM190.98,29.5h10.62v-9h-10.62v9Z"/>
        <path class="cls-1" d="M115.23,31.5h-14.62v-13h14.62v13ZM102.6,29.5h10.62v-9h-10.62v9Z"/>
        <path class="cls-1" d="M178.35,31.5h-14.62v-13h14.62v13ZM165.73,29.5h10.62v-9h-10.62v9Z"/>
        <path class="cls-1" d="M127.85,31.5h-14.62v-13h14.62v13ZM115.23,29.5h10.62v-9h-10.62v9Z"/>
        <path class="cls-1" d="M140.48,31.5h-14.62v-13h14.62v13ZM127.85,29.5h10.62v-9h-10.62v9Z"/>
        <path class="cls-1" d="M165.73,31.5h-14.62v-13h14.62v13ZM153.1,29.5h10.62v-9h-10.62v9Z"/>
      </g>
      <path class="cls-1" d="M330,39H0V0h330v39ZM3,36h324V3H3v33Z"/>
    </g>
  </g>
</svg>