<?xml version="1.0" encoding="UTF-8"?>
<svg id="Layer_2" data-name="Layer 2" xmlns="http://www.w3.org/2000/svg" viewBox="0 0 330 39">
  <defs>
    <style>
      .cls-1 {
        stroke-width: 0px;
      }
    </style>
  </defs>
  <g id="Layer_1-2" data-name="Layer 1">
    <g>
      <path class="cls-1" d="M330,39H0V0h330v39ZM3,36h324V3H3v33Z"/>
      <g>
        <path class="cls-1" d="M26.62,20.5h-14.12V7.5h14.12v13ZM14.5,18.5h10.12v-9h-10.12v9Z"/>
        <path class="cls-1" d="M127.62,20.5h-14.62V7.5h14.62v13ZM115,18.5h10.62v-9h-10.62v9Z"/>
        <path class="cls-1" d="M152.88,20.5h-14.62V7.5h14.62v13ZM140.25,18.5h10.62v-9h-10.62v9Z"/>
        <path class="cls-1" d="M165.5,20.5h-14.62V7.5h14.62v13ZM152.88,18.5h10.62v-9h-10.62v9Z"/>
        <path class="cls-1" d="M140.25,20.5h-14.62V7.5h14.62v13ZM127.62,18.5h10.62v-9h-10.62v9Z"/>
        <path class="cls-1" d="M178.12,20.5h-14.62V7.5h14.62v13ZM165.5,18.5h10.62v-9h-10.62v9Z"/>
        <path class="cls-1" d="M102.38,20.5h-14.62V7.5h14.62v13ZM89.75,18.5h10.62v-9h-10.62v9Z"/>
        <path class="cls-1" d="M51.88,20.5h-14.62V7.5h14.62v13ZM39.25,18.5h10.62v-9h-10.62v9Z"/>
        <path class="cls-1" d="M39.25,20.5h-14.62V7.5h14.62v13ZM26.62,18.5h10.62v-9h-10.62v9Z"/>
        <path class="cls-1" d="M64.5,20.5h-14.62V7.5h14.62v13ZM51.88,18.5h10.62v-9h-10.62v9Z"/>
        <path class="cls-1" d="M89.75,20.5h-14.62V7.5h14.62v13ZM77.12,18.5h10.62v-9h-10.62v9Z"/>
        <path class="cls-1" d="M77.12,20.5h-14.62V7.5h14.62v13ZM64.5,18.5h10.62v-9h-10.62v9Z"/>
        <path class="cls-1" d="M115,20.5h-14.62V7.5h14.62v13ZM102.38,18.5h10.62v-9h-10.62v9Z"/>
        <path class="cls-1" d="M291.75,20.5h-14.62V7.5h14.62v13ZM279.12,18.5h10.62v-9h-10.62v9Z"/>
        <path class="cls-1" d="M279.12,20.5h-14.62V7.5h14.62v13ZM266.5,18.5h10.62v-9h-10.62v9Z"/>
        <path class="cls-1" d="M266.5,20.5h-14.62V7.5h14.62v13ZM253.88,18.5h10.62v-9h-10.62v9Z"/>
        <path class="cls-1" d="M304.38,20.5h-14.62V7.5h14.62v13ZM291.75,18.5h10.62v-9h-10.62v9Z"/>
        <path class="cls-1" d="M317.5,20.5h-15.12V7.5h15.12v13ZM304.38,18.5h11.12v-9h-11.12v9Z"/>
        <path class="cls-1" d="M228.62,20.5h-14.62V7.5h14.62v13ZM216,18.5h10.62v-9h-10.62v9Z"/>
        <path class="cls-1" d="M216,20.5h-14.62V7.5h14.62v13ZM203.38,18.5h10.62v-9h-10.62v9Z"/>
        <path class="cls-1" d="M253.88,20.5h-14.62V7.5h14.62v13ZM241.25,18.5h10.62v-9h-10.62v9Z"/>
        <path class="cls-1" d="M203.38,20.5h-14.62V7.5h14.62v13ZM190.75,18.5h10.62v-9h-10.62v9Z"/>
        <path class="cls-1" d="M241.25,20.5h-14.62V7.5h14.62v13ZM228.62,18.5h10.62v-9h-10.62v9Z"/>
        <path class="cls-1" d="M190.75,20.5h-14.62V7.5h14.62v13ZM178.12,18.5h10.62v-9h-10.62v9Z"/>
        <path class="cls-1" d="M253.88,31.5h-14.62v-13h14.62v13ZM241.25,29.5h10.62v-9h-10.62v9Z"/>
        <path class="cls-1" d="M228.62,31.5h-14.62v-13h14.62v13ZM216,29.5h10.62v-9h-10.62v9Z"/>
        <path class="cls-1" d="M216,31.5h-14.62v-13h14.62v13ZM203.38,29.5h10.62v-9h-10.62v9Z"/>
        <path class="cls-1" d="M203.38,31.5h-14.62v-13h14.62v13ZM190.75,29.5h10.62v-9h-10.62v9Z"/>
        <path class="cls-1" d="M178.12,31.5h-14.62v-13h14.62v13ZM165.5,29.5h10.62v-9h-10.62v9Z"/>
        <path class="cls-1" d="M190.75,31.5h-14.62v-13h14.62v13ZM178.12,29.5h10.62v-9h-10.62v9Z"/>
        <path class="cls-1" d="M241.25,31.5h-14.62v-13h14.62v13ZM228.62,29.5h10.62v-9h-10.62v9Z"/>
        <path class="cls-1" d="M304.38,31.5h-14.62v-13h14.62v13ZM291.75,29.5h10.62v-9h-10.62v9Z"/>
        <path class="cls-1" d="M317.5,31.5h-15.12v-13h15.12v13ZM304.38,29.5h11.12v-9h-11.12v9Z"/>
        <path class="cls-1" d="M266.5,31.5h-14.62v-13h14.62v13ZM253.88,29.5h10.62v-9h-10.62v9Z"/>
        <path class="cls-1" d="M279.12,31.5h-14.62v-13h14.62v13ZM266.5,29.5h10.62v-9h-10.62v9Z"/>
        <path class="cls-1" d="M291.75,31.5h-14.62v-13h14.62v13ZM279.12,29.5h10.62v-9h-10.62v9Z"/>
        <path class="cls-1" d="M51.88,31.5h-14.62v-13h14.62v13ZM39.25,29.5h10.62v-9h-10.62v9Z"/>
        <path class="cls-1" d="M64.5,31.5h-14.62v-13h14.62v13ZM51.88,29.5h10.62v-9h-10.62v9Z"/>
        <path class="cls-1" d="M77.12,31.5h-14.62v-13h14.62v13ZM64.5,29.5h10.62v-9h-10.62v9Z"/>
        <path class="cls-1" d="M89.75,31.5h-14.62v-13h14.62v13ZM77.12,29.5h10.62v-9h-10.62v9Z"/>
        <path class="cls-1" d="M39.25,31.5h-14.62v-13h14.62v13ZM26.62,29.5h10.62v-9h-10.62v9Z"/>
        <path class="cls-1" d="M26.62,31.5h-14.12v-13h14.12v13ZM14.5,29.5h10.12v-9h-10.12v9Z"/>
        <path class="cls-1" d="M152.88,31.5h-14.62v-13h14.62v13ZM140.25,29.5h10.62v-9h-10.62v9Z"/>
        <path class="cls-1" d="M165.5,31.5h-14.62v-13h14.62v13ZM152.88,29.5h10.62v-9h-10.62v9Z"/>
        <path class="cls-1" d="M140.25,31.5h-14.62v-13h14.62v13ZM127.62,29.5h10.62v-9h-10.62v9Z"/>
        <path class="cls-1" d="M127.62,31.5h-14.62v-13h14.62v13ZM115,29.5h10.62v-9h-10.62v9Z"/>
        <path class="cls-1" d="M115,31.5h-14.62v-13h14.62v13ZM102.38,29.5h10.62v-9h-10.62v9Z"/>
        <path class="cls-1" d="M102.38,31.5h-14.62v-13h14.62v13ZM89.75,29.5h10.62v-9h-10.62v9Z"/>
      </g>
    </g>
  </g>
</svg>