<?xml version="1.0" encoding="UTF-8"?>
<svg id="Layer_2" data-name="Layer 2" xmlns="http://www.w3.org/2000/svg" viewBox="0 0 122.5 212">
  <defs>
    <style>
      .cls-1, .cls-2 {
        stroke-width: 0px;
      }

      .cls-2 {
        fill: #fff;
      }
    </style>
  </defs>
  <g id="Layer_1-2" data-name="Layer 1">
    <g>
      <g>
        <path class="cls-2" d="M61.25,22.59c4.55,0,8.24,3.69,8.24,8.24s-3.69,8.24-8.24,8.24-8.24-3.69-8.24-8.24,3.69-8.24,8.24-8.24ZM61.25,52.59c10.07,0,18.24,8.17,18.24,18.24s-8.17,18.24-18.24,18.24-18.24-8.17-18.24-18.24,8.17-18.24,18.24-18.24ZM61.25,182.5c-22.64,0-41-18.36-41-41s18.36-41,41-41,41,18.36,41,41-18.36,41-41,41ZM69.75,197h36.23c8.3,0,15.02-6.73,15.02-15.02V16.52c0-8.29-6.72-15.02-15.02-15.02H16.53C8.23,1.5,1.5,8.23,1.5,16.52v165.46c0,8.29,6.73,15.02,15.03,15.02h36.22"/>
        <path class="cls-1" d="M105.98,198.5h-36.23v-3h36.23c7.46,0,13.52-6.06,13.52-13.52V16.52c0-7.46-6.06-13.52-13.52-13.52H16.53c-7.46,0-13.53,6.06-13.53,13.52v165.46c0,7.46,6.07,13.52,13.53,13.52h36.22v3H16.53c-9.11,0-16.53-7.41-16.53-16.52V16.52C0,7.41,7.42,0,16.53,0h89.45c9.11,0,16.52,7.41,16.52,16.52v165.46c0,9.11-7.41,16.52-16.52,16.52ZM61.25,184c-23.43,0-42.5-19.07-42.5-42.5s19.07-42.5,42.5-42.5,42.5,19.07,42.5,42.5-19.07,42.5-42.5,42.5ZM61.25,102c-21.78,0-39.5,17.72-39.5,39.5s17.72,39.5,39.5,39.5,39.5-17.72,39.5-39.5-17.72-39.5-39.5-39.5ZM61.25,90.57c-10.88,0-19.74-8.85-19.74-19.74s8.85-19.74,19.74-19.74,19.74,8.85,19.74,19.74-8.85,19.74-19.74,19.74ZM61.25,54.09c-9.23,0-16.74,7.51-16.74,16.74s7.51,16.74,16.74,16.74,16.74-7.51,16.74-16.74-7.51-16.74-16.74-16.74ZM61.25,40.57c-5.37,0-9.74-4.37-9.74-9.74s4.37-9.74,9.74-9.74,9.74,4.37,9.74,9.74-4.37,9.74-9.74,9.74ZM61.25,24.09c-3.72,0-6.74,3.02-6.74,6.74s3.02,6.74,6.74,6.74,6.74-3.02,6.74-6.74-3.02-6.74-6.74-6.74Z"/>
      </g>
      <g>
        <circle class="cls-2" cx="61.25" cy="141.5" r="41"/>
        <path class="cls-1" d="M61.25,184c-23.43,0-42.5-19.07-42.5-42.5s19.07-42.5,42.5-42.5,42.5,19.07,42.5,42.5-19.07,42.5-42.5,42.5ZM61.25,102c-21.78,0-39.5,17.72-39.5,39.5s17.72,39.5,39.5,39.5,39.5-17.72,39.5-39.5-17.72-39.5-39.5-39.5Z"/>
      </g>
      <g>
        <circle class="cls-2" cx="61.25" cy="30.83" r="8.24"/>
        <path class="cls-1" d="M61.25,40.57c-5.37,0-9.74-4.37-9.74-9.74s4.37-9.74,9.74-9.74,9.74,4.37,9.74,9.74-4.37,9.74-9.74,9.74ZM61.25,24.09c-3.72,0-6.74,3.02-6.74,6.74s3.02,6.74,6.74,6.74,6.74-3.02,6.74-6.74-3.02-6.74-6.74-6.74Z"/>
      </g>
      <g>
        <circle class="cls-2" cx="61.25" cy="70.83" r="18.24"/>
        <path class="cls-1" d="M61.25,90.57c-10.88,0-19.74-8.85-19.74-19.74s8.85-19.74,19.74-19.74,19.74,8.85,19.74,19.74-8.85,19.74-19.74,19.74ZM61.25,54.09c-9.23,0-16.74,7.51-16.74,16.74s7.51,16.74,16.74,16.74,16.74-7.51,16.74-16.74-7.51-16.74-16.74-16.74Z"/>
      </g>
      <g>
        <rect class="cls-2" x="52.75" y="197" width="17" height="13.5"/>
        <path class="cls-1" d="M71.25,212h-20v-16.5h20v16.5ZM54.25,209h14v-10.5h-14v10.5Z"/>
      </g>
      <rect class="cls-1" x="52.75" y="195.5" width="17" height="3"/>
    </g>
  </g>
</svg>