<?xml version="1.0" encoding="UTF-8"?>
<svg id="Layer_2" data-name="Layer 2" xmlns="http://www.w3.org/2000/svg" viewBox="0 0 295 338">
  <defs>
    <style>
      .cls-1, .cls-2 {
        stroke-width: 0px;
      }

      .cls-2 {
        fill: #fff;
      }
    </style>
  </defs>
  <g id="Layer_1-2" data-name="Layer 1">
    <g>
      <path class="cls-1" d="M295,338H0V0h295v338ZM6,332h283V6H6v326Z"/>
      <path class="cls-1" d="M199.12,87.5h-103V25.5h103v62ZM99.12,84.5h97V28.5h-97v56Z"/>
      <path class="cls-1" d="M225.25,38c-3.31,0-6-2.69-6-6s2.69-6,6-6,6,2.69,6,6-2.69,6-6,6ZM225.25,29c-1.65,0-3,1.35-3,3s1.35,3,3,3,3-1.35,3-3-1.35-3-3-3Z"/>
      <path class="cls-1" d="M222.25,58c-3.31,0-6-2.69-6-6s2.69-6,6-6,6,2.69,6,6-2.69,6-6,6ZM222.25,49c-1.65,0-3,1.35-3,3s1.35,3,3,3,3-1.35,3-3-1.35-3-3-3Z"/>
      <path class="cls-1" d="M216.25,78c-3.31,0-6-2.69-6-6s2.69-6,6-6,6,2.69,6,6-2.69,6-6,6ZM216.25,69c-1.65,0-3,1.35-3,3s1.35,3,3,3,3-1.35,3-3-1.35-3-3-3Z"/>
      <path class="cls-1" d="M61.86,38.39c-3.31,0-6-2.69-6-6s2.69-6,6-6,6,2.69,6,6-2.69,6-6,6ZM61.86,29.39c-1.65,0-3,1.35-3,3s1.35,3,3,3,3-1.35,3-3-1.35-3-3-3Z"/>
      <path class="cls-1" d="M64.86,58.2c-3.31,0-6-2.69-6-6s2.69-6,6-6,6,2.69,6,6-2.69,6-6,6ZM64.86,49.2c-1.65,0-3,1.35-3,3s1.35,3,3,3,3-1.35,3-3-1.35-3-3-3Z"/>
      <path class="cls-1" d="M69.25,78c-3.31,0-6-2.69-6-6s2.69-6,6-6,6,2.69,6,6-2.69,6-6,6ZM69.25,69c-1.65,0-3,1.35-3,3s1.35,3,3,3,3-1.35,3-3-1.35-3-3-3Z"/>
      <path class="cls-1" d="M78.25,96c-3.31,0-6-2.69-6-6s2.69-6,6-6,6,2.69,6,6-2.69,6-6,6ZM78.25,87c-1.65,0-3,1.35-3,3s1.35,3,3,3,3-1.35,3-3-1.35-3-3-3Z"/>
      <path class="cls-1" d="M91.25,118c-3.31,0-6-2.69-6-6s2.69-6,6-6,6,2.69,6,6-2.69,6-6,6ZM91.25,109c-1.65,0-3,1.35-3,3s1.35,3,3,3,3-1.35,3-3-1.35-3-3-3Z"/>
      <path class="cls-1" d="M277.25,61c-3.31,0-6-2.69-6-6s2.69-6,6-6,6,2.69,6,6-2.69,6-6,6ZM277.25,52c-1.65,0-3,1.35-3,3s1.35,3,3,3,3-1.35,3-3-1.35-3-3-3Z"/>
      <path class="cls-1" d="M278.25,148H22.25v-12h256v12ZM25.25,145h250v-6H25.25v6Z"/>
      <g>
        <path class="cls-1" d="M118.91,58.4l4.86-.3c.1.79.32,1.39.64,1.8.53.67,1.28,1,2.26,1,.73,0,1.29-.17,1.69-.51.4-.34.59-.74.59-1.19s-.19-.81-.56-1.15-1.25-.66-2.62-.96c-2.24-.5-3.84-1.17-4.79-2.01-.96-.83-1.44-1.9-1.44-3.19,0-.85.25-1.65.74-2.41.49-.76,1.23-1.35,2.22-1.78.99-.43,2.34-.65,4.07-.65,2.11,0,3.72.39,4.83,1.18,1.11.79,1.77,2.04,1.98,3.75l-4.82.28c-.13-.74-.4-1.29-.81-1.62-.41-.34-.98-.51-1.7-.51-.59,0-1.04.13-1.34.38s-.45.56-.45.92c0,.26.12.5.37.71.24.22.81.42,1.71.61,2.23.48,3.83.97,4.8,1.46.97.49,1.67,1.1,2.11,1.83s.66,1.55.66,2.45c0,1.06-.29,2.04-.88,2.93-.59.9-1.41,1.57-2.46,2.04s-2.38.69-3.98.69c-2.81,0-4.76-.54-5.84-1.62-1.08-1.08-1.7-2.46-1.84-4.13Z"/>
        <path class="cls-1" d="M151.17,61.46c.64.44,1.06.72,1.25.83.29.17.69.36,1.18.58l-1.42,2.87c-.71-.35-1.42-.76-2.12-1.24-.7-.48-1.19-.84-1.47-1.08-1.13.49-2.54.73-4.24.73-2.51,0-4.49-.65-5.94-1.96-1.71-1.55-2.57-3.73-2.57-6.53s.75-4.84,2.25-6.35c1.5-1.51,3.6-2.26,6.29-2.26s4.86.74,6.36,2.21c1.49,1.47,2.24,3.58,2.24,6.33,0,2.44-.6,4.4-1.8,5.87ZM147.25,58.84c.41-.73.61-1.82.61-3.27,0-1.67-.31-2.86-.93-3.58-.62-.71-1.48-1.07-2.57-1.07-1.02,0-1.84.36-2.47,1.09-.63.73-.95,1.87-.95,3.42,0,1.8.31,3.07.92,3.8s1.46,1.09,2.54,1.09c.35,0,.67-.03.98-.1-.43-.41-1.11-.8-2.03-1.17l.8-1.84c.45.08.8.18,1.05.3.25.12.74.44,1.47.95.17.12.36.24.56.37Z"/>
        <path class="cls-1" d="M154.54,56.07h6.68v3.55h-6.68v-3.55Z"/>
        <path class="cls-1" d="M164.53,47.33h10.91v3.67h-7.39l-.4,2.48c.51-.24,1.02-.42,1.52-.54.5-.12.99-.18,1.48-.18,1.65,0,3,.5,4.03,1.5s1.55,2.26,1.55,3.78c0,1.07-.27,2.09-.8,3.08-.53.99-1.28,1.74-2.26,2.26-.97.52-2.22.78-3.74.78-1.09,0-2.02-.1-2.8-.31-.78-.21-1.44-.51-1.98-.92-.55-.41-.99-.87-1.33-1.39s-.62-1.17-.85-1.94l4.65-.51c.11.74.38,1.31.79,1.7s.91.58,1.48.58c.64,0,1.17-.24,1.58-.73.42-.48.63-1.21.63-2.17s-.21-1.71-.63-2.17c-.42-.46-.98-.69-1.68-.69-.44,0-.87.11-1.29.33-.31.16-.65.44-1.02.86l-3.91-.56,1.46-8.89Z"/>
      </g>
      <rect class="cls-1" x="29.25" y="188.58" width="3" height="119"/>
      <rect class="cls-1" x="270.25" y="188.58" width="3" height="119"/>
      <rect class="cls-1" x="251.43" y="188.58" width="3" height="119"/>
      <rect class="cls-1" x="237.54" y="188.58" width="3" height="119"/>
      <rect class="cls-1" x="223.65" y="188.58" width="3" height="119"/>
      <rect class="cls-1" x="209.77" y="188.58" width="3" height="119"/>
      <rect class="cls-1" x="195.88" y="188.58" width="3" height="119"/>
      <rect class="cls-1" x="182" y="188.58" width="3" height="119"/>
      <rect class="cls-1" x="168.11" y="188.58" width="3" height="119"/>
      <rect class="cls-1" x="154.22" y="188.58" width="3" height="119"/>
      <rect class="cls-1" x="140.34" y="188.58" width="3" height="119"/>
      <rect class="cls-1" x="126.45" y="188.58" width="3" height="119"/>
      <rect class="cls-1" x="112.57" y="188.58" width="3" height="119"/>
      <rect class="cls-1" x="98.68" y="188.58" width="3" height="119"/>
      <rect class="cls-1" x="84.79" y="188.58" width="3" height="119"/>
      <rect class="cls-1" x="70.91" y="188.58" width="3" height="119"/>
      <rect class="cls-1" x="57.02" y="188.58" width="3" height="119"/>
      <rect class="cls-1" x="43.14" y="188.58" width="3" height="119"/>
      <g>
        <rect class="cls-2" x="27.73" y="277.5" width="7.02" height="14.15"/>
        <path class="cls-1" d="M36.25,293.15h-10.02v-17.15h10.02v17.15ZM29.23,290.15h4.02v-11.15h-4.02v11.15Z"/>
      </g>
      <g>
        <rect class="cls-2" x="40.78" y="257.36" width="7.02" height="14.15"/>
        <path class="cls-1" d="M49.3,273.01h-10.02v-17.15h10.02v17.15ZM42.28,270.01h4.02v-11.15h-4.02v11.15Z"/>
      </g>
      <g>
        <rect class="cls-2" x="55.15" y="292.12" width="7.02" height="14.15"/>
        <path class="cls-1" d="M63.67,307.77h-10.02v-17.15h10.02v17.15ZM56.65,304.77h4.02v-11.15h-4.02v11.15Z"/>
      </g>
      <g>
        <rect class="cls-2" x="69.15" y="292.12" width="7.02" height="14.15"/>
        <path class="cls-1" d="M77.67,307.77h-10.02v-17.15h10.02v17.15ZM70.65,304.77h4.02v-11.15h-4.02v11.15Z"/>
      </g>
      <g>
        <rect class="cls-2" x="83.15" y="222.12" width="7.02" height="14.15"/>
        <path class="cls-1" d="M91.67,237.77h-10.02v-17.15h10.02v17.15ZM84.65,234.77h4.02v-11.15h-4.02v11.15Z"/>
      </g>
      <g>
        <rect class="cls-2" x="96.15" y="250.12" width="7.02" height="14.15"/>
        <path class="cls-1" d="M104.67,265.77h-10.02v-17.15h10.02v17.15ZM97.65,262.77h4.02v-11.15h-4.02v11.15Z"/>
      </g>
      <g>
        <rect class="cls-2" x="110.15" y="231.12" width="7.02" height="14.15"/>
        <path class="cls-1" d="M118.67,246.77h-10.02v-17.15h10.02v17.15ZM111.65,243.77h4.02v-11.15h-4.02v11.15Z"/>
      </g>
      <g>
        <rect class="cls-2" x="124.15" y="265.12" width="7.02" height="14.15"/>
        <path class="cls-1" d="M132.67,280.77h-10.02v-17.15h10.02v17.15ZM125.65,277.77h4.02v-11.15h-4.02v11.15Z"/>
      </g>
      <g>
        <rect class="cls-2" x="138.15" y="288.12" width="7.02" height="14.15"/>
        <path class="cls-1" d="M146.67,303.77h-10.02v-17.15h10.02v17.15ZM139.65,300.77h4.02v-11.15h-4.02v11.15Z"/>
      </g>
      <g>
        <rect class="cls-2" x="152.36" y="277.58" width="7.02" height="14.15"/>
        <path class="cls-1" d="M160.89,293.23h-10.02v-17.15h10.02v17.15ZM153.86,290.23h4.02v-11.15h-4.02v11.15Z"/>
      </g>
      <g>
        <rect class="cls-2" x="166.42" y="257.43" width="7.02" height="14.15"/>
        <path class="cls-1" d="M174.94,273.09h-10.02v-17.15h10.02v17.15ZM167.92,270.09h4.02v-11.15h-4.02v11.15Z"/>
      </g>
      <g>
        <rect class="cls-2" x="179.79" y="292.2" width="7.02" height="14.15"/>
        <path class="cls-1" d="M188.31,307.85h-10.02v-17.15h10.02v17.15ZM181.29,304.85h4.02v-11.15h-4.02v11.15Z"/>
      </g>
      <g>
        <rect class="cls-2" x="194.79" y="292.2" width="7.02" height="14.15"/>
        <path class="cls-1" d="M203.31,307.85h-10.02v-17.15h10.02v17.15ZM196.29,304.85h4.02v-11.15h-4.02v11.15Z"/>
      </g>
      <g>
        <rect class="cls-2" x="208.79" y="222.2" width="7.02" height="14.15"/>
        <path class="cls-1" d="M217.31,237.85h-10.02v-17.15h10.02v17.15ZM210.29,234.85h4.02v-11.15h-4.02v11.15Z"/>
      </g>
      <g>
        <rect class="cls-2" x="221.79" y="250.2" width="7.02" height="14.15"/>
        <path class="cls-1" d="M230.31,265.85h-10.02v-17.15h10.02v17.15ZM223.29,262.85h4.02v-11.15h-4.02v11.15Z"/>
      </g>
      <g>
        <rect class="cls-2" x="235.79" y="231.2" width="7.02" height="14.15"/>
        <path class="cls-1" d="M244.31,246.85h-10.02v-17.15h10.02v17.15ZM237.29,243.85h4.02v-11.15h-4.02v11.15Z"/>
      </g>
      <g>
        <rect class="cls-2" x="249.79" y="265.2" width="7.02" height="14.15"/>
        <path class="cls-1" d="M258.31,280.85h-10.02v-17.15h10.02v17.15ZM251.29,277.85h4.02v-11.15h-4.02v11.15Z"/>
      </g>
    </g>
  </g>
</svg>