<?xml version="1.0" encoding="UTF-8"?>
<svg id="Layer_2" data-name="Layer 2" xmlns="http://www.w3.org/2000/svg" viewBox="0 0 231 73.81">
  <defs>
    <style>
      .cls-1, .cls-2 {
        stroke-width: 0px;
      }

      .cls-2 {
        fill: #fff;
      }
    </style>
  </defs>
  <g id="Layer_1-2" data-name="Layer 1">
    <g>
      <g>
        <rect class="cls-2" x=".68" y="8.88" width="229.63" height="57.41" rx="15.72" ry="15.72"/>
        <path class="cls-1" d="M214.6,9.57c8.29,0,15.04,6.74,15.04,15.04v25.97c0,8.29-6.74,15.04-15.04,15.04H16.4c-8.29,0-15.04-6.74-15.04-15.04v-25.97c0-8.29,6.74-15.04,15.04-15.04h198.2M214.6,8.2H16.4C7.38,8.2,0,15.58,0,24.6v25.97c0,9.02,7.38,16.4,16.4,16.4h198.2c9.02,0,16.4-7.38,16.4-16.4v-25.97c0-9.02-7.38-16.4-16.4-16.4h0Z"/>
      </g>
      <g>
        <circle class="cls-2" cx="165.39" cy="36.91" r="34.86"/>
        <path class="cls-1" d="M165.39,4.1c18.09,0,32.8,14.72,32.8,32.8s-14.72,32.8-32.8,32.8-32.8-14.72-32.8-32.8,14.72-32.8,32.8-32.8M165.39,0c-20.38,0-36.91,16.52-36.91,36.91s16.52,36.91,36.91,36.91,36.91-16.52,36.91-36.91S185.77,0,165.39,0h0Z"/>
      </g>
      <rect class="cls-1" x="17.09" y="23.24" width="84.75" height="4.1"/>
      <rect class="cls-1" x="16.4" y="35.54" width="84.75" height="4.1"/>
      <rect class="cls-1" x="16.4" y="47.84" width="84.75" height="4.1"/>
    </g>
  </g>
</svg>