<?xml version="1.0" encoding="UTF-8"?>
<svg id="Layer_2" data-name="Layer 2" xmlns="http://www.w3.org/2000/svg" viewBox="0 0 129 116">
  <defs>
    <style>
      .cls-1 {
        stroke-width: 0px;
      }
    </style>
  </defs>
  <g id="Layer_1-2" data-name="Layer 1">
    <g>
      <g>
        <polygon class="cls-1" points="129 116 0 116 0 89.6 16 89.6 16 92.6 3 92.6 3 113 126 113 126 92.6 113 92.6 113 89.6 129 89.6 129 116"/>
        <path class="cls-1" d="M114.5,92.6H14.5v-42.6C14.5,22.43,36.93,0,64.5,0s50,22.43,50,50v42.6ZM17.5,89.6h94v-39.6c0-25.92-21.08-47-47-47S17.5,24.08,17.5,50v39.6Z"/>
        <rect class="cls-1" x="16" y="89.6" width="97" height="3"/>
      </g>
      <path class="cls-1" d="M64.5,76c-14.61,0-26.5-11.89-26.5-26.5s11.89-26.5,26.5-26.5,26.5,11.89,26.5,26.5-11.89,26.5-26.5,26.5ZM64.5,26c-12.96,0-23.5,10.54-23.5,23.5s10.54,23.5,23.5,23.5,23.5-10.54,23.5-23.5-10.54-23.5-23.5-23.5Z"/>
    </g>
  </g>
</svg>