<?xml version="1.0" encoding="UTF-8"?>
<svg id="Layer_2" data-name="Layer 2" xmlns="http://www.w3.org/2000/svg" viewBox="0 0 96 96">
  <defs>
    <style>
      .cls-1 {
        stroke-width: 0px;
      }
    </style>
  </defs>
  <g id="Layer_1-2" data-name="Layer 1">
    <g>
      <path class="cls-1" d="M48,96C21.53,96,0,74.47,0,48S21.53,0,48,0s48,21.53,48,48-21.53,48-48,48ZM48,4C23.74,4,4,23.74,4,48s19.74,44,44,44,44-19.74,44-44S72.26,4,48,4Z"/>
      <path class="cls-1" d="M48,70.94c-12.65,0-22.94-10.29-22.94-22.94s10.29-22.93,22.94-22.93,22.93,10.29,22.93,22.93-10.29,22.94-22.93,22.94ZM48,29.07c-10.44,0-18.94,8.49-18.94,18.93s8.49,18.94,18.94,18.94,18.93-8.49,18.93-18.94-8.49-18.93-18.93-18.93Z"/>
      <g>
        <path class="cls-1" d="M43.77,51.81h-4.48l-.62,2.11h-4.03l4.8-12.78h4.31l4.8,12.78h-4.14l-.64-2.11ZM42.95,49.05l-1.41-4.59-1.4,4.59h2.81Z"/>
        <path class="cls-1" d="M49.79,41.14h6.56c1.43,0,2.5.34,3.21,1.02.71.68,1.07,1.65,1.07,2.9s-.39,2.3-1.16,3.02-1.96,1.09-3.55,1.09h-2.16v4.74h-3.97v-12.78ZM53.75,46.59h.97c.76,0,1.3-.13,1.6-.4.31-.26.46-.6.46-1.02s-.13-.74-.4-1.02c-.27-.28-.77-.42-1.51-.42h-1.12v2.85Z"/>
      </g>
    </g>
  </g>
</svg>