<?xml version="1.0" encoding="UTF-8"?>
<svg id="Layer_2" data-name="Layer 2" xmlns="http://www.w3.org/2000/svg" viewBox="0 0 64.5 77.59">
  <defs>
    <style>
      .cls-1 {
        stroke-width: 0px;
      }
    </style>
  </defs>
  <g id="Layer_1-2" data-name="Layer 1">
    <g>
      <rect class="cls-1" x="1" y="37.05" width="46" height="3"/>
      <g>
        <path class="cls-1" d="M0,77.59V0l52.76,16.63c6.71.68,11.74,6.24,11.74,13v18.34c0,6.76-5.04,12.32-11.74,13l-14.31,4.51-.9-2.86,14.78-4.62c5.23-.46,9.17-4.77,9.17-10.03v-18.34c0-5.25-3.94-9.56-9.17-10.03l-.32-.06L3,4.09v69.41l21.55-6.79.9,2.86L0,77.59Z"/>
        <path class="cls-1" d="M39.5,74.05h-16v-7l16-5.04v12.04ZM26.5,71.05h10v-4.95l-10,3.15v1.8Z"/>
        <rect class="cls-1" x="24.68" y="64.6" width="13.63" height="3" transform="translate(-18.42 12.53) rotate(-17.5)"/>
      </g>
    </g>
  </g>
</svg>