<?xml version="1.0" encoding="UTF-8"?>
<svg id="Layer_2" data-name="Layer 2" xmlns="http://www.w3.org/2000/svg" viewBox="0 0 55 168.25">
  <defs>
    <style>
      .cls-1 {
        stroke-width: 0px;
      }
    </style>
  </defs>
  <g id="Layer_1-2" data-name="Layer 1">
    <g>
      <path class="cls-1" d="M42.6,50.48l-1.65-2.51c6.92-4.56,11.06-12.21,11.06-20.48,0-13.51-10.99-24.5-24.5-24.5S3,13.99,3,27.5c0,8.26,4.13,15.92,11.06,20.48l-1.65,2.51C4.64,45.37,0,36.77,0,27.5,0,12.34,12.34,0,27.5,0s27.5,12.34,27.5,27.5c0,9.27-4.64,17.87-12.4,22.98Z"/>
      <path class="cls-1" d="M39.45,152.5H15.55l-3.93-106.12,2.43,1.6c4,2.63,8.65,4.02,13.44,4.02s9.45-1.39,13.44-4.02l2.43-1.6-3.93,106.12ZM18.45,149.5h18.11l3.61-97.59c-3.9,2.03-8.23,3.09-12.67,3.09s-8.77-1.06-12.67-3.09l3.61,97.59Z"/>
      <path class="cls-1" d="M27.5,55c-5.39,0-10.61-1.56-15.1-4.52l1.65-2.51c4,2.63,8.65,4.02,13.44,4.02s9.45-1.39,13.44-4.02l1.65,2.51c-4.49,2.96-9.71,4.52-15.1,4.52Z"/>
      <path class="cls-1" d="M20,168.25v-18.75h15v12.5l-15,6.25ZM23,152.5v11.25l9-3.75v-7.5h-9Z"/>
    </g>
  </g>
</svg>